<svg xmlns="http://www.w3.org/2000/svg" width="16" height="16" fill="none">
  <path fill="#E5E5E5" d="M0 0h16v16H0z"/>
  <g clip-path="url(#a)">
    <path fill="#fff" d="M-312-2268h1440V930H-312z"/>
    <path fill="#F4F4FD" d="M-312-600h1440v770H-312z"/>
    <g filter="url(#b)">
      <path fill="#fff" d="M-156-368h264V56a4 4 0 0 1-4 4h-256a4 4 0 0 1-4-4v-424Z"/>
      <path fill="#4D5AE5" d="M28 8a19.937 19.937 0 0 1-5.858 14.142A19.937 19.937 0 0 1 8 28a19.937 19.937 0 0 1-14.142-5.858A19.937 19.937 0 0 1-12 8 19.937 19.937 0 0 1-6.142-6.142 19.937 19.937 0 0 1 8-12a19.937 19.937 0 0 1 14.142 5.858A19.937 19.937 0 0 1 28 8Z"/>
      <g clip-path="url(#c)">
        <path fill="#F4F4FD" d="M10.665 2.657h1.46V.113A18.862 18.862 0 0 0 9.997 0C7.891 0 6.45 1.325 6.45 3.76V6H4.125v2.844h2.324V16h2.849V8.845h2.23L11.882 6H9.297V4.04c.001-.822.222-1.384 1.368-1.384Z"/>
      </g>
    </g>
  </g>
  <defs>
    <clipPath id="a">
      <path fill="#fff" d="M-312-2268h1440V930H-312z"/>
    </clipPath>
    <clipPath id="c">
      <path fill="#fff" d="M0 0h16v16H0z"/>
    </clipPath>
    <filter id="b" width="276" height="440" x="-162" y="-373" color-interpolation-filters="sRGB" filterUnits="userSpaceOnUse">
      <feFlood flood-opacity="0" result="BackgroundImageFix"/>
      <feColorMatrix in="SourceAlpha" result="hardAlpha" values="0 0 0 0 0 0 0 0 0 0 0 0 0 0 0 0 0 0 127 0"/>
      <feOffset dy="2"/>
      <feGaussianBlur stdDeviation=".5"/>
      <feColorMatrix values="0 0 0 0 0.180392 0 0 0 0 0.184314 0 0 0 0 0.258824 0 0 0 0.08 0"/>
      <feBlend in2="BackgroundImageFix" result="effect1_dropShadow_297015_303"/>
      <feColorMatrix in="SourceAlpha" result="hardAlpha" values="0 0 0 0 0 0 0 0 0 0 0 0 0 0 0 0 0 0 127 0"/>
      <feOffset dy="1"/>
      <feGaussianBlur stdDeviation=".5"/>
      <feColorMatrix values="0 0 0 0 0.180392 0 0 0 0 0.184314 0 0 0 0 0.258824 0 0 0 0.16 0"/>
      <feBlend in2="effect1_dropShadow_297015_303" result="effect2_dropShadow_297015_303"/>
      <feColorMatrix in="SourceAlpha" result="hardAlpha" values="0 0 0 0 0 0 0 0 0 0 0 0 0 0 0 0 0 0 127 0"/>
      <feOffset dy="1"/>
      <feGaussianBlur stdDeviation="3"/>
      <feColorMatrix values="0 0 0 0 0.180392 0 0 0 0 0.184314 0 0 0 0 0.258824 0 0 0 0.08 0"/>
      <feBlend in2="effect2_dropShadow_297015_303" result="effect3_dropShadow_297015_303"/>
      <feBlend in="SourceGraphic" in2="effect3_dropShadow_297015_303" result="shape"/>
    </filter>
  </defs>
</svg>
