<svg xmlns="http://www.w3.org/2000/svg" width="16" height="16" fill="none">
  <path fill="#E5E5E5" d="M0 0h16v16H0z"/>
  <g clip-path="url(#a)">
    <path fill="#fff" d="M-376-2268h1440V930H-376z"/>
    <path fill="#F4F4FD" d="M-376-600h1440v770H-376z"/>
    <g filter="url(#b)">
      <path fill="#fff" d="M-220-368H44V56a4 4 0 0 1-4 4h-256a4 4 0 0 1-4-4v-424Z"/>
      <path fill="#4D5AE5" d="M28 8a19.937 19.937 0 0 1-5.858 14.142A19.937 19.937 0 0 1 8 28a19.937 19.937 0 0 1-14.142-5.858A19.937 19.937 0 0 1-12 8 19.937 19.937 0 0 1-6.142-6.142 19.937 19.937 0 0 1 8-12a19.937 19.937 0 0 1 14.142 5.858A19.937 19.937 0 0 1 28 8Z"/>
      <g fill="#F4F4FD" clip-path="url(#c)">
        <path d="M15.996 16H16V10.13c0-2.87-.618-5.082-3.974-5.082-1.613 0-2.696.886-3.138 1.725h-.047V5.317H5.66V16h3.314v-5.29c0-1.392.264-2.738 1.988-2.738 1.7 0 1.725 1.589 1.725 2.828V16h3.31ZM.264 5.318h3.317V16H.264V5.318ZM1.921 0C.861 0 .001.86.001 1.92c0 1.06.86 1.94 1.92 1.94 1.061 0 1.922-.88 1.922-1.94S2.98 0 1.92 0Z"/>
      </g>
    </g>
  </g>
  <defs>
    <clipPath id="a">
      <path fill="#fff" d="M-376-2268h1440V930H-376z"/>
    </clipPath>
    <clipPath id="c">
      <path fill="#fff" d="M0 0h16v16H0z"/>
    </clipPath>
    <filter id="b" width="276" height="440" x="-226" y="-373" color-interpolation-filters="sRGB" filterUnits="userSpaceOnUse">
      <feFlood flood-opacity="0" result="BackgroundImageFix"/>
      <feColorMatrix in="SourceAlpha" result="hardAlpha" values="0 0 0 0 0 0 0 0 0 0 0 0 0 0 0 0 0 0 127 0"/>
      <feOffset dy="2"/>
      <feGaussianBlur stdDeviation=".5"/>
      <feColorMatrix values="0 0 0 0 0.180392 0 0 0 0 0.184314 0 0 0 0 0.258824 0 0 0 0.08 0"/>
      <feBlend in2="BackgroundImageFix" result="effect1_dropShadow_297015_303"/>
      <feColorMatrix in="SourceAlpha" result="hardAlpha" values="0 0 0 0 0 0 0 0 0 0 0 0 0 0 0 0 0 0 127 0"/>
      <feOffset dy="1"/>
      <feGaussianBlur stdDeviation=".5"/>
      <feColorMatrix values="0 0 0 0 0.180392 0 0 0 0 0.184314 0 0 0 0 0.258824 0 0 0 0.16 0"/>
      <feBlend in2="effect1_dropShadow_297015_303" result="effect2_dropShadow_297015_303"/>
      <feColorMatrix in="SourceAlpha" result="hardAlpha" values="0 0 0 0 0 0 0 0 0 0 0 0 0 0 0 0 0 0 127 0"/>
      <feOffset dy="1"/>
      <feGaussianBlur stdDeviation="3"/>
      <feColorMatrix values="0 0 0 0 0.180392 0 0 0 0 0.184314 0 0 0 0 0.258824 0 0 0 0.08 0"/>
      <feBlend in2="effect2_dropShadow_297015_303" result="effect3_dropShadow_297015_303"/>
      <feBlend in="SourceGraphic" in2="effect3_dropShadow_297015_303" result="shape"/>
    </filter>
  </defs>
</svg>
