<svg width="16" height="14" viewBox="0 0 16 14" fill="none" xmlns="http://www.w3.org/2000/svg">
<rect width="16" height="14" fill="#E5E5E5"/>
<g id="Main Page" clip-path="url(#clip0_297015_303)">
<rect width="1440" height="3198" transform="translate(-248 -2269)" fill="white"/>
<g id="Section 3">
<rect id="Light-bg" x="-248" y="-601" width="1440" height="770" fill="#F4F4FD"/>
<g id="Team Card 1" filter="url(#filter0_ddd_297015_303)">
<path d="M-92 -369H172V55C172 57.2091 170.209 59 168 59H-88C-90.2091 59 -92 57.2091 -92 55V-369Z" fill="white"/>
<g id="Card Content">
<g id="Traling Icons">
<g id="Ellipse">
<path id="Ellipse_2" d="M28 7C28 12.5228 25.7614 17.5228 22.1421 21.1421C18.5228 24.7614 13.5228 27 8 27C2.47715 27 -2.52285 24.7614 -6.14214 21.1421C-9.76142 17.5228 -12 12.5228 -12 7C-12 1.47715 -9.76142 -3.52285 -6.14214 -7.14214C-2.52285 -10.7614 2.47715 -13 8 -13C13.5228 -13 18.5228 -10.7614 22.1421 -7.14214C25.7614 -3.52285 28 1.47715 28 7Z" fill="#4D5AE5"/>
<g id="twitter 1" clip-path="url(#clip1_297015_303)">
<g id="Group">
<g id="Group_2">
<path id="Vector" d="M16 2.03888C15.405 2.29988 14.771 2.47288 14.11 2.55688C14.79 2.15088 15.309 1.51288 15.553 0.743878C14.919 1.12188 14.219 1.38888 13.473 1.53788C12.871 0.896878 12.013 0.499878 11.077 0.499878C9.261 0.499878 7.799 1.97388 7.799 3.78088C7.799 4.04088 7.821 4.29088 7.875 4.52888C5.148 4.39588 2.735 3.08888 1.114 1.09788C0.831 1.58888 0.665 2.15088 0.665 2.75588C0.665 3.89188 1.25 4.89888 2.122 5.48188C1.595 5.47188 1.078 5.31888 0.64 5.07788C0.64 5.08788 0.64 5.10088 0.64 5.11388C0.64 6.70788 1.777 8.03188 3.268 8.33688C3.001 8.40988 2.71 8.44488 2.408 8.44488C2.198 8.44488 1.986 8.43288 1.787 8.38888C2.212 9.68788 3.418 10.6429 4.852 10.6739C3.736 11.5469 2.319 12.0729 0.785 12.0729C0.516 12.0729 0.258 12.0609 0 12.0279C1.453 12.9649 3.175 13.4999 5.032 13.4999C11.068 13.4999 14.368 8.49988 14.368 4.16588C14.368 4.02088 14.363 3.88088 14.356 3.74188C15.007 3.27988 15.554 2.70288 16 2.03888Z" fill="#F4F4FD"/>
</g>
</g>
</g>
</g>
</g>
</g>
</g>
</g>
</g>
<defs>
<filter id="filter0_ddd_297015_303" x="-98" y="-374" width="276" height="440" filterUnits="userSpaceOnUse" color-interpolation-filters="sRGB">
<feFlood flood-opacity="0" result="BackgroundImageFix"/>
<feColorMatrix in="SourceAlpha" type="matrix" values="0 0 0 0 0 0 0 0 0 0 0 0 0 0 0 0 0 0 127 0" result="hardAlpha"/>
<feOffset dy="2"/>
<feGaussianBlur stdDeviation="0.5"/>
<feColorMatrix type="matrix" values="0 0 0 0 0.180392 0 0 0 0 0.184314 0 0 0 0 0.258824 0 0 0 0.08 0"/>
<feBlend mode="normal" in2="BackgroundImageFix" result="effect1_dropShadow_297015_303"/>
<feColorMatrix in="SourceAlpha" type="matrix" values="0 0 0 0 0 0 0 0 0 0 0 0 0 0 0 0 0 0 127 0" result="hardAlpha"/>
<feOffset dy="1"/>
<feGaussianBlur stdDeviation="0.5"/>
<feColorMatrix type="matrix" values="0 0 0 0 0.180392 0 0 0 0 0.184314 0 0 0 0 0.258824 0 0 0 0.16 0"/>
<feBlend mode="normal" in2="effect1_dropShadow_297015_303" result="effect2_dropShadow_297015_303"/>
<feColorMatrix in="SourceAlpha" type="matrix" values="0 0 0 0 0 0 0 0 0 0 0 0 0 0 0 0 0 0 127 0" result="hardAlpha"/>
<feOffset dy="1"/>
<feGaussianBlur stdDeviation="3"/>
<feColorMatrix type="matrix" values="0 0 0 0 0.180392 0 0 0 0 0.184314 0 0 0 0 0.258824 0 0 0 0.08 0"/>
<feBlend mode="normal" in2="effect2_dropShadow_297015_303" result="effect3_dropShadow_297015_303"/>
<feBlend mode="normal" in="SourceGraphic" in2="effect3_dropShadow_297015_303" result="shape"/>
</filter>
<clipPath id="clip0_297015_303">
<rect width="1440" height="3198" fill="white" transform="translate(-248 -2269)"/>
</clipPath>
<clipPath id="clip1_297015_303">
<rect width="16" height="16" fill="white" transform="translate(0 -1.00012)"/>
</clipPath>
</defs>
</svg>
